<svg width="79" height="40" viewBox="0 0 79 40" fill="none" xmlns="http://www.w3.org/2000/svg">
<path d="M1.66993 15.4324C1.17038 15.4324 0.763601 15.2825 0.449597 14.9828C0.149866 14.6688 0 14.262 0 13.7625V1.7732C0 1.27365 0.135593 0.888282 0.406778 0.617097C0.677964 0.345911 1.06333 0.210318 1.56289 0.210318H8.92771C9.47008 0.210318 9.86972 0.317365 10.1266 0.531459C10.3836 0.745553 10.512 1.08097 10.512 1.5377C10.512 1.98016 10.3836 2.30844 10.1266 2.52253C9.86972 2.73663 9.47008 2.84367 8.92771 2.84367H3.29704V6.31199H8.49952C9.0419 6.31199 9.44154 6.41904 9.69845 6.63313C9.95536 6.84723 10.0838 7.18264 10.0838 7.63937C10.0838 8.08183 9.95536 8.41011 9.69845 8.62421C9.44154 8.8383 9.0419 8.94535 8.49952 8.94535H3.29704V13.7625C3.29704 14.2763 3.14718 14.6831 2.84745 14.9828C2.56199 15.2825 2.16948 15.4324 1.66993 15.4324Z" fill="#2B2B43"/>
<path d="M16.8385 15.4752C15.7252 15.4752 14.7475 15.254 13.9054 14.8115C13.0633 14.3548 12.4139 13.7196 11.9571 12.9061C11.5004 12.0783 11.272 11.1077 11.272 9.99441C11.272 8.88112 11.5004 7.9177 11.9571 7.10414C12.4139 6.27631 13.0633 5.64117 13.9054 5.1987C14.7475 4.75624 15.7252 4.53501 16.8385 4.53501C17.9518 4.53501 18.9295 4.75624 19.7716 5.1987C20.6137 5.64117 21.2631 6.27631 21.7198 7.10414C22.1766 7.9177 22.4049 8.88112 22.4049 9.99441C22.4049 11.1077 22.1766 12.0783 21.7198 12.9061C21.2631 13.7196 20.6137 14.3548 19.7716 14.8115C18.9295 15.254 17.9518 15.4752 16.8385 15.4752ZM16.8385 13.0131C18.4085 13.0131 19.1935 12.0069 19.1935 9.99441C19.1935 8.98103 18.9866 8.22456 18.5726 7.72501C18.173 7.22546 17.5949 6.97568 16.8385 6.97568C15.2685 6.97568 14.4834 7.98192 14.4834 9.99441C14.4834 12.0069 15.2685 13.0131 16.8385 13.0131Z" fill="#2B2B43"/>
<path d="M29.4249 15.4752C28.3116 15.4752 27.3339 15.254 26.4918 14.8115C25.6497 14.3548 25.0002 13.7196 24.5435 12.9061C24.0868 12.0783 23.8584 11.1077 23.8584 9.99441C23.8584 8.88112 24.0868 7.9177 24.5435 7.10414C25.0002 6.27631 25.6497 5.64117 26.4918 5.1987C27.3339 4.75624 28.3116 4.53501 29.4249 4.53501C30.5381 4.53501 31.5158 4.75624 32.3579 5.1987C33.2 5.64117 33.8495 6.27631 34.3062 7.10414C34.7629 7.9177 34.9913 8.88112 34.9913 9.99441C34.9913 11.1077 34.7629 12.0783 34.3062 12.9061C33.8495 13.7196 33.2 14.3548 32.3579 14.8115C31.5158 15.254 30.5381 15.4752 29.4249 15.4752ZM29.4249 13.0131C30.9949 13.0131 31.7799 12.0069 31.7799 9.99441C31.7799 8.98103 31.5729 8.22456 31.159 7.72501C30.7594 7.22546 30.1813 6.97568 29.4249 6.97568C27.8548 6.97568 27.0698 7.98192 27.0698 9.99441C27.0698 12.0069 27.8548 13.0131 29.4249 13.0131Z" fill="#2B2B43"/>
<path d="M45.9291 0.103271C46.4287 0.103271 46.8283 0.238864 47.1281 0.51005C47.4421 0.781235 47.5991 1.13806 47.5991 1.58052V13.9123C47.5991 14.3691 47.4492 14.7402 47.1495 15.0256C46.864 15.2968 46.4786 15.4324 45.9934 15.4324C45.5081 15.4324 45.1156 15.2968 44.8159 15.0256C44.5304 14.7402 44.3877 14.3691 44.3877 13.9123V13.741C44.0737 14.2834 43.6241 14.7116 43.0389 15.0256C42.468 15.3253 41.8185 15.4752 41.0906 15.4752C40.1914 15.4752 39.385 15.2468 38.6714 14.7901C37.972 14.3191 37.4225 13.6697 37.0228 12.8419C36.6375 11.9998 36.4448 11.0363 36.4448 9.95159C36.4448 8.86685 36.6375 7.9177 37.0228 7.10414C37.4225 6.27631 37.972 5.64117 38.6714 5.1987C39.3707 4.75624 40.1772 4.53501 41.0906 4.53501C41.8043 4.53501 42.4466 4.68488 43.0175 4.98461C43.6027 5.28434 44.0523 5.70539 44.3663 6.24777V1.51629C44.3663 1.0881 44.509 0.745553 44.7944 0.488641C45.0799 0.231728 45.4581 0.103271 45.9291 0.103271ZM42.0326 13.0131C42.7891 13.0131 43.3672 12.7562 43.7668 12.2424C44.1807 11.7143 44.3877 10.965 44.3877 9.99441C44.3877 9.02385 44.1807 8.28166 43.7668 7.76783C43.3672 7.25401 42.7891 6.99709 42.0326 6.99709C41.2762 6.99709 40.691 7.25401 40.2771 7.76783C39.8632 8.26738 39.6562 8.9953 39.6562 9.95159C39.6562 10.9221 39.8632 11.6786 40.2771 12.221C40.691 12.7491 41.2762 13.0131 42.0326 13.0131Z" fill="#2B2B43"/>
<path d="M9.48436 20.6566C9.98391 20.6566 10.3836 20.7921 10.6833 21.0633C10.9973 21.3345 11.1543 21.6913 11.1543 22.1338V34.4656C11.1543 34.9223 11.0044 35.2934 10.7047 35.5789C10.4192 35.8501 10.0339 35.9857 9.54859 35.9857C9.06331 35.9857 8.6708 35.8501 8.37107 35.5789C8.08561 35.2934 7.94288 34.9223 7.94288 34.4656V34.2943C7.62888 34.8367 7.17928 35.2649 6.59409 35.5789C6.02318 35.8786 5.37376 36.0285 4.64584 36.0285C3.74664 36.0285 2.94022 35.8001 2.22657 35.3434C1.5272 34.8724 0.977698 34.223 0.578056 33.3951C0.192687 32.553 0 31.5896 0 30.5049C0 29.4201 0.192687 28.471 0.578056 27.6574C0.977698 26.8296 1.5272 26.1944 2.22657 25.752C2.92595 25.3095 3.73237 25.0883 4.64584 25.0883C5.35949 25.0883 6.00177 25.2382 6.57268 25.5379C7.15787 25.8376 7.60747 26.2587 7.92147 26.801V22.0696C7.92147 21.6414 8.0642 21.2988 8.34966 21.0419C8.63512 20.785 9.01335 20.6566 9.48436 20.6566ZM5.58785 33.5664C6.34432 33.5664 6.92237 33.3095 7.32201 32.7957C7.73593 32.2676 7.94288 31.5182 7.94288 30.5477C7.94288 29.5771 7.73593 28.8349 7.32201 28.3211C6.92237 27.8073 6.34432 27.5504 5.58785 27.5504C4.83139 27.5504 4.24619 27.8073 3.83228 28.3211C3.41836 28.8207 3.21141 29.5486 3.21141 30.5049C3.21141 31.4754 3.41836 32.2319 3.83228 32.7743C4.24619 33.3024 4.83139 33.5664 5.58785 33.5664Z" fill="#4E60FF"/>
<path d="M22.0791 32.7314C22.3646 32.7314 22.5929 32.8456 22.7642 33.074C22.9497 33.3024 23.0425 33.595 23.0425 33.9518C23.0425 34.1944 22.9712 34.4228 22.8284 34.6369C22.6857 34.8367 22.4859 35.008 22.229 35.1507C21.7437 35.4076 21.1799 35.6217 20.5376 35.793C19.8953 35.95 19.303 36.0285 18.7606 36.0285C17.6188 36.0285 16.6197 35.8073 15.7633 35.3648C14.9212 34.9223 14.2718 34.2943 13.8151 33.4808C13.3583 32.6529 13.13 31.6824 13.13 30.5691C13.13 29.4986 13.3512 28.5495 13.7937 27.7216C14.2361 26.8938 14.8499 26.2515 15.6349 25.7948C16.4199 25.3238 17.3119 25.0883 18.311 25.0883C19.2673 25.0883 20.1023 25.3024 20.8159 25.7306C21.5439 26.1445 22.1076 26.744 22.5073 27.529C22.9069 28.2997 23.1067 29.206 23.1067 30.248C23.1067 30.562 23.0282 30.8046 22.8712 30.9759C22.7285 31.1329 22.5216 31.2114 22.2504 31.2114H16.2557C16.3557 32.0535 16.6126 32.6672 17.0265 33.0526C17.4404 33.4237 18.0327 33.6092 18.8035 33.6092C19.2174 33.6092 19.5885 33.5593 19.9168 33.4594C20.245 33.3595 20.609 33.2239 21.0086 33.0526C21.2085 32.9669 21.4011 32.8956 21.5867 32.8385C21.7722 32.7671 21.9364 32.7314 22.0791 32.7314ZM18.3967 27.3149C17.7829 27.3149 17.2905 27.5147 16.9194 27.9143C16.5483 28.2997 16.3271 28.8635 16.2557 29.6057H20.3878C20.3449 28.8492 20.1523 28.2783 19.8097 27.8929C19.4814 27.5076 19.0104 27.3149 18.3967 27.3149Z" fill="#4E60FF"/>
<path d="M26.6865 35.9857C26.2155 35.9857 25.823 35.8572 25.5089 35.6003C25.2092 35.3434 25.0593 34.9652 25.0593 34.4656V22.1766C25.0593 21.6771 25.2092 21.2988 25.5089 21.0419C25.823 20.785 26.2155 20.6566 26.6865 20.6566C27.1432 20.6566 27.5214 20.785 27.8212 21.0419C28.1352 21.2988 28.2922 21.6771 28.2922 22.1766V34.4656C28.2922 34.9652 28.1352 35.3434 27.8212 35.6003C27.5214 35.8572 27.1432 35.9857 26.6865 35.9857Z" fill="#4E60FF"/>
<path d="M32.3942 35.9857C31.9232 35.9857 31.5307 35.8572 31.2167 35.6003C30.917 35.3434 30.7671 34.9652 30.7671 34.4656V26.6512C30.7671 26.1516 30.9241 25.7734 31.2381 25.5165C31.5521 25.2596 31.9375 25.1311 32.3942 25.1311C32.851 25.1311 33.2292 25.2596 33.5289 25.5165C33.8429 25.7734 33.9999 26.1516 33.9999 26.6512V34.4656C33.9999 34.9652 33.8429 35.3434 33.5289 35.6003C33.2292 35.8572 32.851 35.9857 32.3942 35.9857ZM32.3942 23.4184C31.8233 23.4184 31.3737 23.2756 31.0454 22.9902C30.7172 22.6904 30.553 22.2908 30.553 21.7913C30.553 21.2917 30.7172 20.8992 31.0454 20.6137C31.3737 20.3283 31.8233 20.1855 32.3942 20.1855C32.9509 20.1855 33.3933 20.3354 33.7216 20.6351C34.0642 20.9206 34.2354 21.306 34.2354 21.7913C34.2354 22.2908 34.0713 22.6904 33.743 22.9902C33.4148 23.2756 32.9652 23.4184 32.3942 23.4184Z" fill="#4E60FF"/>
<path d="M43.647 26.0517C43.7898 25.752 43.9753 25.5308 44.2037 25.388C44.4463 25.231 44.7032 25.1525 44.9744 25.1525C45.3741 25.1525 45.7309 25.2881 46.0449 25.5593C46.3589 25.8162 46.5159 26.1302 46.5159 26.5013C46.5159 26.7154 46.4659 26.9224 46.366 27.1222L42.5123 35.0222C42.3696 35.3363 42.1555 35.5789 41.8701 35.7502C41.5846 35.9072 41.2777 35.9857 40.9495 35.9857C40.6212 35.9857 40.3143 35.9072 40.0289 35.7502C39.7434 35.5789 39.5222 35.3363 39.3652 35.0222L35.5115 27.1222C35.4258 26.9224 35.383 26.7297 35.383 26.5441C35.383 26.1588 35.5472 25.8305 35.8754 25.5593C36.218 25.2881 36.5962 25.1525 37.0101 25.1525C37.3099 25.1525 37.5811 25.231 37.8237 25.388C38.0663 25.5308 38.259 25.752 38.4017 26.0517L41.0351 31.8108L43.647 26.0517Z" fill="#4E60FF"/>
<path d="M56.1376 32.7314C56.423 32.7314 56.6514 32.8456 56.8227 33.074C57.0082 33.3024 57.101 33.595 57.101 33.9518C57.101 34.1944 57.0296 34.4228 56.8869 34.6369C56.7442 34.8367 56.5444 35.008 56.2874 35.1507C55.8022 35.4076 55.2384 35.6217 54.5961 35.793C53.9538 35.95 53.3615 36.0285 52.8191 36.0285C51.6773 36.0285 50.6782 35.8073 49.8218 35.3648C48.9797 34.9223 48.3303 34.2943 47.8736 33.4808C47.4168 32.6529 47.1885 31.6824 47.1885 30.5691C47.1885 29.4986 47.4097 28.5495 47.8521 27.7216C48.2946 26.8938 48.9083 26.2515 49.6934 25.7948C50.4784 25.3238 51.3704 25.0883 52.3695 25.0883C53.3258 25.0883 54.1608 25.3024 54.8744 25.7306C55.6023 26.1445 56.1661 26.744 56.5658 27.529C56.9654 28.2997 57.1652 29.206 57.1652 30.248C57.1652 30.562 57.0867 30.8046 56.9297 30.9759C56.787 31.1329 56.58 31.2114 56.3089 31.2114H50.3142C50.4141 32.0535 50.6711 32.6672 51.085 33.0526C51.4989 33.4237 52.0912 33.6092 52.8619 33.6092C53.2759 33.6092 53.6469 33.5593 53.9752 33.4594C54.3035 33.3595 54.6675 33.2239 55.0671 33.0526C55.2669 32.9669 55.4596 32.8956 55.6452 32.8385C55.8307 32.7671 55.9949 32.7314 56.1376 32.7314ZM52.4552 27.3149C51.8414 27.3149 51.349 27.5147 50.9779 27.9143C50.6068 28.2997 50.3856 28.8635 50.3142 29.6057H54.4462C54.4034 28.8492 54.2107 28.2783 53.8682 27.8929C53.5399 27.5076 53.0689 27.3149 52.4552 27.3149Z" fill="#4E60FF"/>
<path d="M65.3908 25.1311C65.819 25.1026 66.1544 25.2025 66.397 25.4308C66.6539 25.6449 66.7824 25.9732 66.7824 26.4157C66.7824 26.8867 66.6682 27.2364 66.4398 27.4647C66.2115 27.6931 65.8047 27.8358 65.2195 27.8929L64.5772 27.9572C63.7922 28.0428 63.2213 28.2997 62.8645 28.7279C62.5219 29.1561 62.3507 29.7056 62.3507 30.3764V34.4656C62.3507 34.9652 62.1936 35.3434 61.8796 35.6003C61.5799 35.8572 61.2017 35.9857 60.745 35.9857C60.2739 35.9857 59.8814 35.8572 59.5674 35.6003C59.2677 35.3434 59.1178 34.9652 59.1178 34.4656V26.6084C59.1178 26.1374 59.2748 25.7734 59.5888 25.5165C59.9028 25.2596 60.2811 25.1311 60.7235 25.1311C61.1517 25.1311 61.5085 25.2596 61.794 25.5165C62.0795 25.7591 62.2222 26.1017 62.2222 26.5441V27.1222C62.4791 26.5085 62.8645 26.0374 63.3783 25.7092C63.9064 25.3809 64.4773 25.1953 65.0911 25.1525L65.3908 25.1311Z" fill="#4E60FF"/>
<path d="M75.5311 26.0517C75.6596 25.752 75.838 25.5308 76.0664 25.388C76.309 25.2453 76.5659 25.1739 76.8371 25.1739C77.251 25.1739 77.615 25.3095 77.929 25.5807C78.243 25.8376 78.4 26.1516 78.4 26.5227C78.4 26.7225 78.35 26.9224 78.2501 27.1222L72.491 38.9402C72.3483 39.2399 72.1556 39.4611 71.913 39.6039C71.6703 39.7609 71.4134 39.8394 71.1422 39.8394C70.7426 39.8394 70.3929 39.7109 70.0932 39.454C69.7934 39.1971 69.6436 38.8831 69.6436 38.512C69.6436 38.2836 69.6935 38.0695 69.7934 37.8697L71.2064 34.9366L67.3956 27.1222C67.3099 26.9224 67.2671 26.7297 67.2671 26.5441C67.2671 26.1588 67.4313 25.8305 67.7595 25.5593C68.1021 25.2881 68.4875 25.1525 68.9156 25.1525C69.2011 25.1525 69.4651 25.231 69.7078 25.388C69.9504 25.5308 70.1431 25.752 70.2858 26.0517L72.9406 31.8323L75.5311 26.0517Z" fill="#4E60FF"/>
</svg>
