<svg width="30" height="30" viewBox="0 0 30 30" fill="none" xmlns="http://www.w3.org/2000/svg">
<path d="M5 11.6667L2.5 15V26.6667C2.5 27.1087 2.67559 27.5326 2.98816 27.8452C3.30072 28.1578 3.72464 28.3334 4.16667 28.3334H15.8333C16.2754 28.3334 16.6993 28.1578 17.0118 27.8452C17.3244 27.5326 17.5 27.1087 17.5 26.6667V15L15 11.6667H5Z" stroke="#4E60FF" stroke-width="1.5" stroke-linecap="round" stroke-linejoin="round"/>
<path d="M2.5 15H17.5" stroke="#4E60FF" stroke-width="1.5" stroke-linecap="round" stroke-linejoin="round"/>
<path d="M13.3333 18.3333C13.3333 19.2174 12.9821 20.0652 12.357 20.6903C11.7319 21.3155 10.8841 21.6666 10 21.6666C9.11595 21.6666 8.2681 21.3155 7.64298 20.6903C7.01786 20.0652 6.66667 19.2174 6.66667 18.3333" stroke="#4E60FF" stroke-width="1.5" stroke-linecap="round" stroke-linejoin="round"/>
<rect x="11.25" y="1.25" width="17.5" height="17.5" rx="6.75" fill="#4E60FF" stroke="white" stroke-width="1.5"/>
<path d="M18.332 14C18.1186 14 17.962 13.9533 17.862 13.86C17.7686 13.76 17.722 13.6167 17.722 13.43C17.722 13.3167 17.752 13.2067 17.812 13.1C17.872 12.9933 17.9586 12.88 18.072 12.76L20.082 10.62C20.3886 10.3 20.6086 10.01 20.742 9.75C20.8753 9.48333 20.942 9.21667 20.942 8.95C20.942 8.61667 20.8353 8.36333 20.622 8.19C20.4153 8.01667 20.112 7.93 19.712 7.93C19.4853 7.93 19.2586 7.96333 19.032 8.03C18.8053 8.09 18.5753 8.19667 18.342 8.35C18.222 8.43 18.1086 8.46333 18.002 8.45C17.902 8.43667 17.812 8.39333 17.732 8.32C17.6586 8.24667 17.6086 8.15667 17.582 8.05C17.5553 7.94333 17.5586 7.83667 17.592 7.73C17.632 7.61667 17.712 7.52 17.832 7.44C18.1186 7.24667 18.4386 7.1 18.792 7C19.152 6.9 19.512 6.85 19.872 6.85C20.3786 6.85 20.8053 6.92667 21.152 7.08C21.4986 7.23333 21.762 7.45667 21.942 7.75C22.122 8.04333 22.212 8.4 22.212 8.82C22.212 9.1 22.1653 9.37333 22.072 9.64C21.9853 9.90667 21.8486 10.1767 21.662 10.45C21.482 10.7233 21.2453 11.0133 20.952 11.32L19.072 13.28V12.94H22.012C22.192 12.94 22.3286 12.9833 22.422 13.07C22.5153 13.1567 22.562 13.2867 22.562 13.46C22.562 13.6333 22.5153 13.7667 22.422 13.86C22.3286 13.9533 22.192 14 22.012 14H18.332Z" fill="white"/>
</svg>
